<svg width="192" height="198" viewBox="0 0 192 198" fill="none" xmlns="http://www.w3.org/2000/svg">
<path d="M63.9999 0C28.6439 0 0 29.539 0 66C0 102.461 28.6439 132 63.9999 132C99.356 132 128 102.461 128 66C128.078 29.539 99.356 0 63.9999 0ZM63.9999 106.405C42.3804 106.405 24.8195 88.2951 24.8195 66C24.8195 43.7049 42.3804 25.5951 63.9999 25.5951C85.6194 25.5951 103.18 43.7049 103.18 66C103.18 88.3756 85.6975 106.405 63.9999 106.405Z" fill="#1C1C1C"/>
<path d="M160 132C142.322 132 128 146.77 128 165C128 183.23 142.322 198 160 198C177.678 198 192 183.23 192 165C192.039 146.77 177.678 132 160 132ZM160 185.202C149.19 185.202 140.41 176.148 140.41 165C140.41 153.852 149.19 144.798 160 144.798C170.81 144.798 179.59 153.852 179.59 165C179.59 176.188 170.849 185.202 160 185.202Z" fill="#1C1C1C"/>
</svg>
