<svg width="59" height="204" viewBox="0 0 59 204" fill="none" xmlns="http://www.w3.org/2000/svg">
<g clip-path="url(#clip0_10154_98)">
<path d="M0 11.5157C0 5.15726 5.13772 0 11.4721 0C17.8065 0 22.9442 5.15726 22.9442 11.5157C22.9442 17.8742 17.8105 23.0315 11.4721 23.0315C5.13373 23.0315 0 17.8782 0 11.5157Z" fill="#1C1C1C"/>
<path d="M47.5268 23.0315C53.8627 23.0315 58.9989 17.8757 58.9989 11.5157C58.9989 5.15577 53.8627 0 47.5268 0C41.1909 0 36.0547 5.15577 36.0547 11.5157C36.0547 17.8757 41.1909 23.0315 47.5268 23.0315Z" fill="#1C1C1C"/>
<path d="M0 47.7086C0 41.3501 5.13772 36.1929 11.4721 36.1929C17.8065 36.1929 22.9442 41.3501 22.9442 47.7086C22.9442 54.0671 17.8065 59.2244 11.4721 59.2244C5.13772 59.2244 0 54.0711 0 47.7086Z" fill="#1C1C1C"/>
<path d="M47.5268 59.2244C53.8627 59.2244 58.9989 54.0686 58.9989 47.7086C58.9989 41.3486 53.8627 36.1929 47.5268 36.1929C41.1909 36.1929 36.0547 41.3486 36.0547 47.7086C36.0547 54.0686 41.1909 59.2244 47.5268 59.2244Z" fill="#1C1C1C"/>
<path d="M0 83.9056C0 77.5472 5.13772 72.3899 11.4721 72.3899C17.8065 72.3899 22.9442 77.5472 22.9442 83.9056C22.9442 90.2641 17.8065 95.4214 11.4721 95.4214C5.13772 95.4214 0 90.2641 0 83.9056Z" fill="#1C1C1C"/>
<path d="M47.5268 95.4214C53.8627 95.4214 58.9989 90.2656 58.9989 83.9056C58.9989 77.5457 53.8627 72.3899 47.5268 72.3899C41.1909 72.3899 36.0547 77.5457 36.0547 83.9056C36.0547 90.2656 41.1909 95.4214 47.5268 95.4214Z" fill="#1C1C1C"/>
<path d="M0 120.099C0 113.74 5.13772 108.583 11.4721 108.583C17.8065 108.583 22.9442 113.74 22.9442 120.099C22.9442 126.457 17.8065 131.614 11.4721 131.614C5.13772 131.614 0 126.457 0 120.099Z" fill="#1C1C1C"/>
<path d="M47.5268 131.614C53.8627 131.614 58.9989 126.458 58.9989 120.099C58.9989 113.739 53.8627 108.583 47.5268 108.583C41.1909 108.583 36.0547 113.739 36.0547 120.099C36.0547 126.458 41.1909 131.614 47.5268 131.614Z" fill="#1C1C1C"/>
<path d="M0 156.291C0 149.933 5.13772 144.775 11.4721 144.775C17.8065 144.775 22.9442 149.933 22.9442 156.291C22.9442 162.65 17.8065 167.807 11.4721 167.807C5.13772 167.807 0 162.65 0 156.291Z" fill="#1C1C1C"/>
<path d="M47.5268 167.807C53.8627 167.807 58.9989 162.651 58.9989 156.291C58.9989 149.931 53.8627 144.775 47.5268 144.775C41.1909 144.775 36.0547 149.931 36.0547 156.291C36.0547 162.651 41.1909 167.807 47.5268 167.807Z" fill="#1C1C1C"/>
<path d="M0 192.484C0 186.126 5.13772 180.969 11.4721 180.969C17.8065 180.969 22.9442 186.126 22.9442 192.484C22.9442 198.843 17.8065 204 11.4721 204C5.13772 204 0 198.847 0 192.484Z" fill="#1C1C1C"/>
<path d="M47.5268 204C53.8627 204 58.9989 198.844 58.9989 192.484C58.9989 186.125 53.8627 180.969 47.5268 180.969C41.1909 180.969 36.0547 186.125 36.0547 192.484C36.0547 198.844 41.1909 204 47.5268 204Z" fill="#1C1C1C"/>
</g>
<defs>
<clipPath id="clip0_10154_98">
<rect width="59" height="204" fill="white"/>
</clipPath>
</defs>
</svg>
