<svg width="96" height="99" viewBox="0 0 96 99" fill="none" xmlns="http://www.w3.org/2000/svg">
<path d="M32 0C14.3219 0 0 14.7695 0 33C0 51.2305 14.3219 66 32 66C49.678 66 63.9999 51.2305 63.9999 33C64.0389 14.7695 49.678 0 32 0ZM32 53.2024C21.1902 53.2024 12.4097 44.1476 12.4097 33C12.4097 21.8524 21.1902 12.7976 32 12.7976C42.8097 12.7976 51.5902 21.8524 51.5902 33C51.5902 44.1878 42.8487 53.2024 32 53.2024Z" fill="#1C1C1C"/>
<path d="M80 66C71.161 66 64 73.3848 64 82.5C64 91.6152 71.161 99 80 99C88.839 99 96 91.6152 96 82.5C96.0195 73.3848 88.839 66 80 66ZM80 92.6012C74.5951 92.6012 70.2049 88.0738 70.2049 82.5C70.2049 76.9262 74.5951 72.3988 80 72.3988C85.4049 72.3988 89.7951 76.9262 89.7951 82.5C89.7951 88.0939 85.4244 92.6012 80 92.6012Z" fill="#1C1C1C"/>
</svg>
