<svg width="90" height="26" viewBox="0 0 90 26" fill="none" xmlns="http://www.w3.org/2000/svg">
<g clip-path="url(#clip0_10154_420)">
<path d="M5.08047 26C2.27526 26 0 23.7359 0 20.9445C0 18.1531 2.27526 15.889 5.08047 15.889C7.88569 15.889 10.1609 18.1513 10.1609 20.9445C10.1609 23.7377 7.88745 26 5.08047 26Z" fill="#1C1C1C"/>
<path d="M10.1609 5.05533C10.1609 2.26325 7.88634 -0.00017643 5.08047 -0.00017643C2.27461 -0.00017643 0 2.26325 0 5.05533C0 7.84741 2.27461 10.1108 5.08047 10.1108C7.88634 10.1108 10.1609 7.84741 10.1609 5.05533Z" fill="#1C1C1C"/>
<path d="M21.0492 26C18.244 26 15.9688 23.7359 15.9688 20.9445C15.9688 18.1531 18.244 15.889 21.0492 15.889C23.8544 15.889 26.1297 18.1531 26.1297 20.9445C26.1297 23.7359 23.8562 26 21.0492 26Z" fill="#1C1C1C"/>
<path d="M26.1297 5.05533C26.1297 2.26325 23.8551 -0.00017643 21.0492 -0.00017643C18.2434 -0.00017643 15.9688 2.26325 15.9688 5.05533C15.9688 7.84741 18.2434 10.1108 21.0492 10.1108C23.8551 10.1108 26.1297 7.84741 26.1297 5.05533Z" fill="#1C1C1C"/>
<path d="M37.018 26C34.2128 26 31.9375 23.7359 31.9375 20.9445C31.9375 18.1531 34.2128 15.889 37.018 15.889C39.8232 15.889 42.0984 18.1531 42.0984 20.9445C42.0984 23.7359 39.8232 26 37.018 26Z" fill="#1C1C1C"/>
<path d="M42.0984 5.05533C42.0984 2.26325 39.8238 -0.00017643 37.018 -0.00017643C34.2121 -0.00017643 31.9375 2.26325 31.9375 5.05533C31.9375 7.84741 34.2121 10.1108 37.018 10.1108C39.8238 10.1108 42.0984 7.84741 42.0984 5.05533Z" fill="#1C1C1C"/>
<path d="M52.9867 26C50.1815 26 47.9062 23.7359 47.9062 20.9445C47.9062 18.1531 50.1815 15.889 52.9867 15.889C55.7919 15.889 58.0672 18.1531 58.0672 20.9445C58.0672 23.7359 55.7919 26 52.9867 26Z" fill="#1C1C1C"/>
<path d="M58.0672 5.05533C58.0672 2.26325 55.7926 -0.00017643 52.9867 -0.00017643C50.1809 -0.00017643 47.9062 2.26325 47.9062 5.05533C47.9062 7.84741 50.1809 10.1108 52.9867 10.1108C55.7926 10.1108 58.0672 7.84741 58.0672 5.05533Z" fill="#1C1C1C"/>
<path d="M68.9555 26C66.1503 26 63.875 23.7359 63.875 20.9445C63.875 18.1531 66.1503 15.889 68.9555 15.889C71.7607 15.889 74.0359 18.1531 74.0359 20.9445C74.0359 23.7359 71.7607 26 68.9555 26Z" fill="#1C1C1C"/>
<path d="M74.0359 5.05533C74.0359 2.26325 71.7613 -0.00017643 68.9555 -0.00017643C66.1496 -0.00017643 63.875 2.26325 63.875 5.05533C63.875 7.84741 66.1496 10.1108 68.9555 10.1108C71.7613 10.1108 74.0359 7.84741 74.0359 5.05533Z" fill="#1C1C1C"/>
<path d="M84.9164 26C82.1112 26 79.8359 23.7359 79.8359 20.9445C79.8359 18.1531 82.1112 15.889 84.9164 15.889C87.7216 15.889 89.9969 18.1531 89.9969 20.9445C89.9969 23.7359 87.7234 26 84.9164 26Z" fill="#1C1C1C"/>
<path d="M89.9969 5.05533C89.9969 2.26325 87.7223 -0.00017643 84.9164 -0.00017643C82.1105 -0.00017643 79.8359 2.26325 79.8359 5.05533C79.8359 7.84741 82.1105 10.1108 84.9164 10.1108C87.7223 10.1108 89.9969 7.84741 89.9969 5.05533Z" fill="#1C1C1C"/>
</g>
<defs>
<clipPath id="clip0_10154_420">
<rect width="26" height="90" fill="white" transform="translate(0 26) rotate(-90)"/>
</clipPath>
</defs>
</svg>
