<svg width="26" height="28" viewBox="0 0 26 28" fill="none" xmlns="http://www.w3.org/2000/svg">
<path d="M22.8069 23.2199V12.7333H20.6222C20.838 13.4129 20.9459 14.1196 20.9459 14.8532C20.9459 16.2126 20.6006 17.4695 19.9102 18.6239C19.2197 19.7675 18.2811 20.6737 17.0943 21.3426C15.9076 22.0115 14.6129 22.346 13.2104 22.346C11.085 22.346 9.26711 21.6177 7.7567 20.1613C6.24628 18.694 5.49107 16.9247 5.49107 14.8532C5.49107 14.1196 5.59896 13.4129 5.81473 12.7333H3.53292V23.2199C3.53292 23.5004 3.62463 23.7377 3.80804 23.9319C4.00223 24.1153 4.23958 24.207 4.52009 24.207H21.8198C22.0895 24.207 22.3214 24.1153 22.5156 23.9319C22.7098 23.7377 22.8069 23.5004 22.8069 23.2199ZM16.7383 18.0251C17.7201 17.0757 18.2109 15.9321 18.2109 14.5943C18.2109 13.2565 17.7201 12.1183 16.7383 11.1797C15.7673 10.2303 14.5913 9.75558 13.2104 9.75558C11.8402 9.75558 10.6642 10.2303 9.68248 11.1797C8.7115 12.1183 8.226 13.2565 8.226 14.5943C8.226 15.9321 8.7115 17.0757 9.68248 18.0251C10.6642 18.9637 11.8402 19.433 13.2104 19.433C14.5913 19.433 15.7673 18.9637 16.7383 18.0251ZM22.8069 8.76841V6.09821C22.8069 5.79613 22.699 5.5372 22.4833 5.32143C22.2675 5.09487 22.0032 4.98158 21.6903 4.98158H18.8744C18.5616 4.98158 18.2972 5.09487 18.0815 5.32143C17.8657 5.5372 17.7578 5.79613 17.7578 6.09821V8.76841C17.7578 9.08129 17.8657 9.34561 18.0815 9.56138C18.2972 9.77716 18.5616 9.88504 18.8744 9.88504H21.6903C22.0032 9.88504 22.2675 9.77716 22.4833 9.56138C22.699 9.34561 22.8069 9.08129 22.8069 8.76841ZM25.6228 5.40234V23.8834C25.6228 24.7573 25.3099 25.5071 24.6842 26.1328C24.0584 26.7586 23.3086 27.0714 22.4347 27.0714H3.95368C3.0798 27.0714 2.32999 26.7586 1.70424 26.1328C1.0785 25.5071 0.765625 24.7573 0.765625 23.8834V5.40234C0.765625 4.52846 1.0785 3.77864 1.70424 3.1529C2.32999 2.52716 3.0798 2.21428 3.95368 2.21428H22.4347C23.3086 2.21428 24.0584 2.52716 24.6842 3.1529C25.3099 3.77864 25.6228 4.52846 25.6228 5.40234Z" fill="white"/>
</svg>
