<svg width="30" height="30" viewBox="0 0 30 30" fill="none" xmlns="http://www.w3.org/2000/svg">
<path d="M25.8214 2.43164H4.18107C3.82639 2.43164 3.48624 2.57254 3.23544 2.82333C2.98465 3.07413 2.84375 3.41428 2.84375 3.76896V25.4093C2.84375 25.5849 2.87834 25.7588 2.94555 25.921C3.01275 26.0833 3.11126 26.2307 3.23544 26.3549C3.35962 26.4791 3.50705 26.5776 3.6693 26.6448C3.83155 26.712 4.00545 26.7466 4.18107 26.7466H15.8279V17.3245H12.667V13.6773H15.8279V10.9419C15.7624 10.2997 15.8383 9.6509 16.0501 9.04109C16.2619 8.43129 16.6045 7.8752 17.054 7.41184C17.5034 6.94848 18.0488 6.58906 18.6519 6.35879C19.255 6.12853 19.9011 6.03299 20.545 6.07888C21.4913 6.07306 22.4371 6.12177 23.3777 6.22477V9.50729H21.4447C19.9128 9.50729 19.6211 10.2367 19.6211 11.2944V13.6408H23.2683L22.7941 17.2881H19.6211V26.7466H25.8214C25.997 26.7466 26.1709 26.712 26.3331 26.6448C26.4954 26.5776 26.6428 26.4791 26.767 26.3549C26.8912 26.2307 26.9897 26.0833 27.0569 25.921C27.1241 25.7588 27.1587 25.5849 27.1587 25.4093V3.76896C27.1587 3.59334 27.1241 3.41944 27.0569 3.25719C26.9897 3.09494 26.8912 2.94751 26.767 2.82333C26.6428 2.69915 26.4954 2.60064 26.3331 2.53344C26.1709 2.46623 25.997 2.43164 25.8214 2.43164Z" fill="white"/>
</svg>
