<svg width="116" height="30" viewBox="0 0 116 30" fill="none" xmlns="http://www.w3.org/2000/svg">
<path d="M104.151 2.43164H96.6921C89.8788 2.43164 88.2578 4.05261 88.2578 10.8532V18.3123C88.2578 25.1255 89.8662 26.7466 96.6794 26.7466H104.139C110.952 26.7466 112.573 25.1382 112.573 18.3249V10.8659C112.573 4.05261 110.964 2.43164 104.151 2.43164ZM107.887 19.7813H106.114C105.443 19.7813 105.24 19.2368 104.037 18.0337C102.986 17.0206 102.543 16.8939 102.277 16.8939C101.91 16.8939 101.808 16.9952 101.808 17.5018V19.0975C101.808 19.5281 101.669 19.7813 100.542 19.7813C99.4482 19.7078 98.3876 19.3756 97.4475 18.8119C96.5073 18.2483 95.7145 17.4694 95.1344 16.5393C93.7571 14.825 92.7988 12.813 92.3357 10.6632C92.3357 10.3973 92.4369 10.1567 92.9435 10.1567H94.7165C95.1724 10.1567 95.337 10.3593 95.5143 10.8279C96.3754 13.3607 97.8445 15.5642 98.4397 15.5642C98.6676 15.5642 98.7689 15.4629 98.7689 14.893V12.2842C98.6929 11.0938 98.0598 10.9925 98.0598 10.5619C98.0681 10.4484 98.1204 10.3425 98.2055 10.2668C98.2906 10.1911 98.4019 10.1516 98.5157 10.1567H101.302C101.682 10.1567 101.808 10.3466 101.808 10.8025V14.3232C101.808 14.7031 101.973 14.8297 102.087 14.8297C102.315 14.8297 102.492 14.7031 102.91 14.2852C103.808 13.19 104.542 11.9699 105.088 10.6632C105.144 10.506 105.25 10.3714 105.389 10.2799C105.529 10.1884 105.694 10.1451 105.861 10.1567H107.634C108.166 10.1567 108.28 10.4226 108.166 10.8025C107.521 12.2472 106.722 13.6186 105.785 14.893C105.595 15.1843 105.519 15.3363 105.785 15.6782C105.962 15.9441 106.583 16.4633 107.001 16.9572C107.608 17.5636 108.113 18.2651 108.495 19.0342C108.647 19.5281 108.394 19.7813 107.887 19.7813Z" fill="white"/>
<path d="M67.8214 2.43164H46.1811C45.8264 2.43164 45.4862 2.57254 45.2354 2.82333C44.9846 3.07413 44.8438 3.41428 44.8438 3.76896V25.4093C44.8438 25.5849 44.8783 25.7588 44.9455 25.921C45.0128 26.0833 45.1113 26.2307 45.2354 26.3549C45.3596 26.4791 45.507 26.5776 45.6693 26.6448C45.8316 26.712 46.0055 26.7466 46.1811 26.7466H57.8279V17.3245H54.667V13.6773H57.8279V10.9419C57.7624 10.2997 57.8383 9.6509 58.0501 9.04109C58.2619 8.43129 58.6045 7.8752 59.054 7.41184C59.5034 6.94848 60.0488 6.58906 60.6519 6.35879C61.255 6.12853 61.9011 6.03299 62.545 6.07888C63.4913 6.07306 64.4371 6.12177 65.3777 6.22477V9.50729H63.4447C61.9128 9.50729 61.6211 10.2367 61.6211 11.2944V13.6408H65.2683L64.7941 17.2881H61.6211V26.7466H67.8214C67.997 26.7466 68.1709 26.712 68.3331 26.6448C68.4954 26.5776 68.6428 26.4791 68.767 26.3549C68.8912 26.2307 68.9897 26.0833 69.0569 25.921C69.1241 25.7588 69.1587 25.5849 69.1587 25.4093V3.76896C69.1587 3.59334 69.1241 3.41944 69.0569 3.25719C68.9897 3.09494 68.8912 2.94751 68.767 2.82333C68.6428 2.69915 68.4954 2.60064 68.3331 2.53344C68.1709 2.46623 67.997 2.43164 67.8214 2.43164Z" fill="white"/>
<g clip-path="url(#clip0_10154_284)">
<path d="M23.0413 23.2199V12.7333H20.8566C21.0724 13.4129 21.1802 14.1196 21.1802 14.8532C21.1802 16.2126 20.835 17.4695 20.1445 18.6239C19.4541 19.7675 18.5154 20.6737 17.3287 21.3426C16.1419 22.0115 14.8473 22.346 13.4448 22.346C11.3194 22.346 9.50149 21.6177 7.99107 20.1613C6.48065 18.694 5.72545 16.9247 5.72545 14.8532C5.72545 14.1196 5.83333 13.4129 6.04911 12.7333H3.7673V23.2199C3.7673 23.5004 3.859 23.7377 4.04241 23.9319C4.23661 24.1153 4.47396 24.207 4.75446 24.207H22.0541C22.3238 24.207 22.5558 24.1153 22.75 23.9319C22.9442 23.7377 23.0413 23.5004 23.0413 23.2199ZM16.9727 18.0251C17.9544 17.0757 18.4453 15.9321 18.4453 14.5943C18.4453 13.2565 17.9544 12.1183 16.9727 11.1797C16.0017 10.2303 14.8257 9.75558 13.4448 9.75558C12.0746 9.75558 10.8986 10.2303 9.91685 11.1797C8.94587 12.1183 8.46038 13.2565 8.46038 14.5943C8.46038 15.9321 8.94587 17.0757 9.91685 18.0251C10.8986 18.9637 12.0746 19.433 13.4448 19.433C14.8257 19.433 16.0017 18.9637 16.9727 18.0251ZM23.0413 8.76841V6.09821C23.0413 5.79613 22.9334 5.5372 22.7176 5.32143C22.5019 5.09487 22.2375 4.98158 21.9247 4.98158H19.1088C18.7959 4.98158 18.5316 5.09487 18.3158 5.32143C18.1001 5.5372 17.9922 5.79613 17.9922 6.09821V8.76841C17.9922 9.08129 18.1001 9.34561 18.3158 9.56138C18.5316 9.77716 18.7959 9.88504 19.1088 9.88504H21.9247C22.2375 9.88504 22.5019 9.77716 22.7176 9.56138C22.9334 9.34561 23.0413 9.08129 23.0413 8.76841ZM25.8571 5.40234V23.8834C25.8571 24.7573 25.5443 25.5071 24.9185 26.1328C24.2928 26.7586 23.543 27.0714 22.6691 27.0714H4.18806C3.31417 27.0714 2.56436 26.7586 1.93862 26.1328C1.31287 25.5071 1 24.7573 1 23.8834V5.40234C1 4.52846 1.31287 3.77864 1.93862 3.1529C2.56436 2.52716 3.31417 2.21428 4.18806 2.21428H22.6691C23.543 2.21428 24.2928 2.52716 24.9185 3.1529C25.5443 3.77864 25.8571 4.52846 25.8571 5.40234Z" fill="white"/>
</g>
<defs>
<clipPath id="clip0_10154_284">
<rect width="29.1779" height="29.1779" fill="white"/>
</clipPath>
</defs>
</svg>
