<svg width="31" height="30" viewBox="0 0 31 30" fill="none" xmlns="http://www.w3.org/2000/svg">
<path d="M19.1512 2.43164H11.6921C4.87878 2.43164 3.25781 4.05261 3.25781 10.8532V18.3123C3.25781 25.1255 4.86617 26.7466 11.6794 26.7466H19.1385C25.9518 26.7466 27.5727 25.1382 27.5727 18.3249V10.8659C27.5727 4.05261 25.9644 2.43164 19.1512 2.43164ZM22.887 19.7813H21.1141C20.4429 19.7813 20.2403 19.2368 19.0372 18.0337C17.986 17.0206 17.5428 16.8939 17.2769 16.8939C16.9097 16.8939 16.8083 16.9952 16.8083 17.5018V19.0975C16.8083 19.5281 16.669 19.7813 15.5419 19.7813C14.4482 19.7078 13.3876 19.3756 12.4475 18.8119C11.5073 18.2483 10.7145 17.4694 10.1344 16.5393C8.75707 14.825 7.79876 12.813 7.33566 10.6632C7.33566 10.3973 7.43694 10.1567 7.94353 10.1567H9.71647C10.1724 10.1567 10.337 10.3593 10.5143 10.8279C11.3754 13.3607 12.8445 15.5642 13.4397 15.5642C13.6676 15.5642 13.7689 15.4629 13.7689 14.893V12.2842C13.6929 11.0938 13.0598 10.9925 13.0598 10.5619C13.0681 10.4484 13.1204 10.3425 13.2055 10.2668C13.2906 10.1911 13.4019 10.1516 13.5157 10.1567H16.3018C16.6817 10.1567 16.8083 10.3466 16.8083 10.8025V14.3232C16.8083 14.7031 16.973 14.8297 17.0869 14.8297C17.3149 14.8297 17.4921 14.7031 17.9101 14.2852C18.8081 13.19 19.5419 11.9699 20.0883 10.6632C20.1441 10.506 20.2498 10.3714 20.3893 10.2799C20.5288 10.1884 20.6944 10.1451 20.8608 10.1567H22.6338C23.1657 10.1567 23.2796 10.4226 23.1657 10.8025C22.5205 12.2472 21.7224 13.6186 20.7849 14.893C20.5949 15.1843 20.5189 15.3363 20.7849 15.6782C20.9621 15.9441 21.5827 16.4633 22.0006 16.9572C22.6085 17.5636 23.1132 18.2651 23.4949 19.0342C23.6469 19.5281 23.3936 19.7813 22.887 19.7813Z" fill="white"/>
</svg>
