<svg width="26" height="26" viewBox="0 0 26 26" fill="none" xmlns="http://www.w3.org/2000/svg">
<rect width="26" height="26" rx="13" fill="url(#paint0_linear_10715_14)"/>
<path d="M17.1205 16.2634V11.9241H16.2165C16.3058 12.2054 16.3504 12.4978 16.3504 12.8013C16.3504 13.3638 16.2076 13.8839 15.9219 14.3616C15.6362 14.8348 15.2478 15.2098 14.7567 15.4866C14.2656 15.7634 13.7299 15.9018 13.1496 15.9018C12.2701 15.9018 11.5179 15.6004 10.8929 14.9978C10.2679 14.3906 9.95536 13.6585 9.95536 12.8013C9.95536 12.4978 10 12.2054 10.0893 11.9241H9.14509V16.2634C9.14509 16.3795 9.18304 16.4777 9.25893 16.558C9.33929 16.6339 9.4375 16.6719 9.55357 16.6719H16.7121C16.8237 16.6719 16.9196 16.6339 17 16.558C17.0804 16.4777 17.1205 16.3795 17.1205 16.2634ZM14.6094 14.1138C15.0156 13.721 15.2188 13.2478 15.2188 12.6942C15.2188 12.1406 15.0156 11.6696 14.6094 11.2812C14.2076 10.8884 13.721 10.692 13.1496 10.692C12.5826 10.692 12.096 10.8884 11.6897 11.2812C11.2879 11.6696 11.0871 12.1406 11.0871 12.6942C11.0871 13.2478 11.2879 13.721 11.6897 14.1138C12.096 14.5022 12.5826 14.6964 13.1496 14.6964C13.721 14.6964 14.2076 14.5022 14.6094 14.1138ZM17.1205 10.2835V9.17857C17.1205 9.05357 17.0759 8.94643 16.9866 8.85714C16.8973 8.76339 16.7879 8.71652 16.6585 8.71652H15.4933C15.3638 8.71652 15.2545 8.76339 15.1652 8.85714C15.0759 8.94643 15.0312 9.05357 15.0312 9.17857V10.2835C15.0312 10.4129 15.0759 10.5223 15.1652 10.6116C15.2545 10.7009 15.3638 10.7455 15.4933 10.7455H16.6585C16.7879 10.7455 16.8973 10.7009 16.9866 10.6116C17.0759 10.5223 17.1205 10.4129 17.1205 10.2835ZM18.2857 8.89062V16.5379C18.2857 16.8996 18.1563 17.2098 17.8973 17.4688C17.6384 17.7277 17.3281 17.8571 16.9665 17.8571H9.3192C8.95759 17.8571 8.64732 17.7277 8.38839 17.4688C8.12946 17.2098 8 16.8996 8 16.5379V8.89062C8 8.52902 8.12946 8.21875 8.38839 7.95982C8.64732 7.70089 8.95759 7.57143 9.3192 7.57143H16.9665C17.3281 7.57143 17.6384 7.70089 17.8973 7.95982C18.1563 8.21875 18.2857 8.52902 18.2857 8.89062Z" fill="white"/>
<defs>
<linearGradient id="paint0_linear_10715_14" x1="13" y1="0" x2="13" y2="26" gradientUnits="userSpaceOnUse">
<stop stop-color="#D828DC"/>
<stop offset="0.177083" stop-color="#F015A6"/>
<stop offset="1" stop-color="#FFC90A"/>
</linearGradient>
</defs>
</svg>
