<svg width="116" height="30" viewBox="0 0 116 30" fill="none" xmlns="http://www.w3.org/2000/svg">
<path d="M104.151 2.43164H96.6921C89.8788 2.43164 88.2578 4.05261 88.2578 10.8532V18.3123C88.2578 25.1255 89.8662 26.7466 96.6794 26.7466H104.139C110.952 26.7466 112.573 25.1382 112.573 18.3249V10.8659C112.573 4.05261 110.964 2.43164 104.151 2.43164ZM107.887 19.7813H106.114C105.443 19.7813 105.24 19.2368 104.037 18.0337C102.986 17.0206 102.543 16.8939 102.277 16.8939C101.91 16.8939 101.808 16.9952 101.808 17.5018V19.0975C101.808 19.5281 101.669 19.7813 100.542 19.7813C99.4482 19.7078 98.3876 19.3756 97.4475 18.8119C96.5073 18.2483 95.7145 17.4694 95.1344 16.5393C93.7571 14.825 92.7988 12.813 92.3357 10.6632C92.3357 10.3973 92.4369 10.1567 92.9435 10.1567H94.7165C95.1724 10.1567 95.337 10.3593 95.5143 10.8279C96.3754 13.3607 97.8445 15.5642 98.4397 15.5642C98.6676 15.5642 98.7689 15.4629 98.7689 14.893V12.2842C98.6929 11.0938 98.0598 10.9925 98.0598 10.5619C98.0681 10.4484 98.1204 10.3425 98.2055 10.2668C98.2906 10.1911 98.4019 10.1516 98.5157 10.1567H101.302C101.682 10.1567 101.808 10.3466 101.808 10.8025V14.3232C101.808 14.7031 101.973 14.8297 102.087 14.8297C102.315 14.8297 102.492 14.7031 102.91 14.2852C103.808 13.19 104.542 11.9699 105.088 10.6632C105.144 10.506 105.25 10.3714 105.389 10.2799C105.529 10.1884 105.694 10.1451 105.861 10.1567H107.634C108.166 10.1567 108.28 10.4226 108.166 10.8025C107.521 12.2472 106.722 13.6186 105.785 14.893C105.595 15.1843 105.519 15.3363 105.785 15.6782C105.962 15.9441 106.583 16.4633 107.001 16.9572C107.608 17.5636 108.113 18.2651 108.495 19.0342C108.647 19.5281 108.394 19.7813 107.887 19.7813V19.7813Z" fill="white"/>
<path d="M67.8214 2.43164H46.1811C45.8264 2.43164 45.4862 2.57254 45.2354 2.82333C44.9846 3.07413 44.8438 3.41428 44.8438 3.76896V25.4092C44.8438 25.5849 44.8783 25.7588 44.9455 25.921C45.0128 26.0833 45.1113 26.2307 45.2354 26.3549C45.3596 26.4791 45.507 26.5776 45.6693 26.6448C45.8316 26.712 46.0055 26.7466 46.1811 26.7466H57.8279V17.3245H54.667V13.6773H57.8279V10.9419C57.7624 10.2997 57.8383 9.6509 58.0501 9.04109C58.2619 8.43129 58.6045 7.8752 59.054 7.41184C59.5034 6.94848 60.0488 6.58906 60.6519 6.35879C61.255 6.12853 61.9011 6.03299 62.545 6.07888C63.4913 6.07306 64.4371 6.12177 65.3777 6.22477V9.50729H63.4447C61.9128 9.50729 61.6211 10.2367 61.6211 11.2944V13.6408H65.2683L64.7942 17.2881H61.6211V26.7466H67.8214C67.997 26.7466 68.1709 26.712 68.3331 26.6448C68.4954 26.5776 68.6428 26.4791 68.767 26.3549C68.8912 26.2307 68.9897 26.0833 69.0569 25.921C69.1241 25.7588 69.1587 25.5849 69.1587 25.4092V3.76896C69.1587 3.59334 69.1241 3.41944 69.0569 3.25719C68.9897 3.09494 68.8912 2.94751 68.767 2.82333C68.6428 2.69915 68.4954 2.60064 68.3331 2.53344C68.1709 2.46623 67.997 2.43164 67.8214 2.43164V2.43164Z" fill="white"/>
<path d="M22.8069 25.2199V14.7333H20.6222C20.838 15.4129 20.9459 16.1196 20.9459 16.8532C20.9459 18.2126 20.6006 19.4695 19.9102 20.6239C19.2197 21.7675 18.2811 22.6737 17.0943 23.3426C15.9076 24.0115 14.6129 24.346 13.2104 24.346C11.085 24.346 9.26711 23.6177 7.7567 22.1613C6.24628 20.694 5.49107 18.9247 5.49107 16.8532C5.49107 16.1196 5.59896 15.4129 5.81473 14.7333H3.53292V25.2199C3.53292 25.5004 3.62463 25.7377 3.80804 25.9319C4.00223 26.1153 4.23958 26.207 4.52009 26.207H21.8198C22.0895 26.207 22.3214 26.1153 22.5156 25.9319C22.7098 25.7377 22.8069 25.5004 22.8069 25.2199ZM16.7383 20.0251C17.7201 19.0757 18.2109 17.9321 18.2109 16.5943C18.2109 15.2565 17.7201 14.1183 16.7383 13.1797C15.7673 12.2303 14.5913 11.7556 13.2104 11.7556C11.8402 11.7556 10.6642 12.2303 9.68248 13.1797C8.7115 14.1183 8.226 15.2565 8.226 16.5943C8.226 17.9321 8.7115 19.0757 9.68248 20.0251C10.6642 20.9637 11.8402 21.433 13.2104 21.433C14.5913 21.433 15.7673 20.9637 16.7383 20.0251ZM22.8069 10.7684V8.09821C22.8069 7.79613 22.699 7.5372 22.4833 7.32143C22.2675 7.09487 22.0032 6.98158 21.6903 6.98158H18.8744C18.5616 6.98158 18.2972 7.09487 18.0815 7.32143C17.8657 7.5372 17.7578 7.79613 17.7578 8.09821V10.7684C17.7578 11.0813 17.8657 11.3456 18.0815 11.5614C18.2972 11.7772 18.5616 11.885 18.8744 11.885H21.6903C22.0032 11.885 22.2675 11.7772 22.4833 11.5614C22.699 11.3456 22.8069 11.0813 22.8069 10.7684ZM25.6228 7.40234V25.8834C25.6228 26.7573 25.3099 27.5071 24.6842 28.1328C24.0584 28.7586 23.3086 29.0714 22.4347 29.0714H3.95368C3.0798 29.0714 2.32999 28.7586 1.70424 28.1328C1.0785 27.5071 0.765625 26.7573 0.765625 25.8834V7.40234C0.765625 6.52846 1.0785 5.77864 1.70424 5.1529C2.32999 4.52716 3.0798 4.21428 3.95368 4.21428H22.4347C23.3086 4.21428 24.0584 4.52716 24.6842 5.1529C25.3099 5.77864 25.6228 6.52846 25.6228 7.40234Z" fill="white"/>
</svg>
